<?xml version="1.0" encoding="utf-8"?>
<!-- Generator: Adobe Illustrator 24.0.1, SVG Export Plug-In . SVG Version: 6.00 Build 0)  -->
<svg version="1.1" id="Слой_1" xmlns="http://www.w3.org/2000/svg" xmlns:xlink="http://www.w3.org/1999/xlink" x="0px" y="0px"
	 viewBox="0 0 11 11" style="enable-background:new 0 0 11 11;" xml:space="preserve">
<style type="text/css">
	.st0{fill:#FFFFFF;}
</style>
<path class="st0" d="M10.1,7.2c-0.7,0-1.3-0.1-2-0.3c-0.3-0.1-0.7,0-0.9,0.2L6.1,8.1C4.6,7.3,3.7,6.4,2.9,4.9l0.9-1.2
	c0.2-0.2,0.3-0.6,0.2-0.9c-0.2-0.6-0.3-1.3-0.3-2C3.8,0.4,3.4,0,2.9,0h-2C0.4,0,0,0.4,0,0.9C0,6.5,4.5,11,10.1,11
	c0.5,0,0.9-0.4,0.9-0.9v-2C11,7.6,10.6,7.2,10.1,7.2z"/>
</svg>
