<svg width="11" height="11" viewBox="0 0 11 11" fill="none" xmlns="http://www.w3.org/2000/svg">
<path d="M10.1316 7.24264C9.45304 7.24264 8.78843 7.13669 8.15852 6.92884C7.8511 6.82289 7.502 6.90452 7.29995 7.11064L6.05116 8.05374C4.61827 7.28896 3.70121 6.37248 2.94685 4.95L3.86448 3.73074C4.09548 3.49974 4.17828 3.16162 4.07928 2.84495C3.86969 2.211 3.76317 1.54579 3.76317 0.868422C3.76317 0.389623 3.37355 0 2.89475 0H0.868422C0.389623 0 0 0.389623 0 0.868422C0 6.45468 4.54532 11 10.1316 11C10.6104 11 11 10.6104 11 10.1316V8.11106C11 7.63226 10.6104 7.24264 10.1316 7.24264Z" fill="white"/>
</svg>
