<svg width="26" height="35" viewBox="0 0 26 35" fill="none" xmlns="http://www.w3.org/2000/svg">
<path d="M13.2061 34.3164C13.2061 34.694 12.9 35 12.5225 35C12.1449 35 11.8389 34.694 11.8389 34.3164C11.8389 33.9388 12.1449 33.6328 12.5225 33.6328C12.9 33.6328 13.2061 33.9388 13.2061 34.3164Z" fill="#2A2C30"/>
<path d="M1.69946 35H9.44597C9.82355 35 10.1296 34.694 10.1296 34.3164C10.1296 33.9388 9.82355 33.6328 9.44597 33.6328H1.69946C1.50881 33.6328 1.32589 33.5527 1.19665 33.4122C1.06767 33.2726 1.00252 33.0838 1.01774 32.8942L2.84849 10.1984C2.87653 9.84615 3.1756 9.57031 3.52941 9.57031H7.73699V12.3047H6.3698C5.99222 12.3047 5.6862 12.6107 5.6862 12.9883C5.6862 13.3659 5.99222 13.6719 6.3698 13.6719H10.4714C10.8489 13.6719 11.155 13.3659 11.155 12.9883C11.155 12.6107 10.8489 12.3047 10.4714 12.3047H9.10417V9.57031H15.9401V12.3047H14.5729C14.1953 12.3047 13.8893 12.6107 13.8893 12.9883C13.8893 13.3659 14.1953 13.6719 14.5729 13.6719H18.6745C19.0521 13.6719 19.3581 13.3659 19.3581 12.9883C19.3581 12.6107 19.0521 12.3047 18.6745 12.3047H17.3073V9.57031H21.5149C21.8687 9.57031 22.1678 9.84615 22.1958 10.1986L24.0265 32.8942C24.0418 33.0838 23.9766 33.2726 23.8466 33.4133C23.7181 33.5527 23.5355 33.6325 23.3448 33.6325H15.5983C15.2207 33.6325 14.9147 33.9388 14.9147 34.3161C14.9147 34.6937 15.2207 34.9997 15.5983 34.9997H23.3448C23.9168 34.9997 24.4666 34.7589 24.8517 34.3402C25.2394 33.9207 25.4354 33.3535 25.3892 32.7842L23.5587 10.0894C23.4741 9.03172 22.5763 8.20312 21.5149 8.20312H17.3073V4.78516C17.3073 2.14664 15.1607 0 12.5221 0C9.88363 0 7.73699 2.14664 7.73699 4.78516V8.20312H3.52941C2.46797 8.20312 1.57022 9.03172 1.48557 10.0889L-0.344909 32.7842C-0.391105 33.3535 -0.195105 33.9207 0.191552 34.3388C0.577676 34.7591 1.12749 35 1.69946 35ZM9.10417 4.78516C9.10417 2.90047 10.6375 1.36719 12.5221 1.36719C14.4068 1.36719 15.9401 2.90047 15.9401 4.78516V8.20312H9.10417V4.78516Z" fill="#2A2C30"/>
</svg>
