<svg width="18" height="12" viewBox="0 0 18 12" fill="none" xmlns="http://www.w3.org/2000/svg">
<path d="M17.0769 0H0.923098C0.415371 0 0 0.415371 0 0.923062V11.0769C0 11.5846 0.415371 12 0.923098 12H17.0769C17.5846 12 18 11.5847 18 11.0769V0.923062C18 0.415371 17.5846 0 17.0769 0ZM16.7305 0.692262L9.531 6.09233C9.40156 6.19084 9.20285 6.25247 8.99996 6.25155C8.79711 6.25247 8.59845 6.19084 8.46896 6.09233L1.26946 0.692262H16.7305ZM12.8848 6.44864L16.8079 11.2948C16.8118 11.2997 16.8166 11.3034 16.8208 11.3078H1.17921C1.18336 11.3032 1.18821 11.2997 1.19215 11.2948L5.11523 6.44864C5.23543 6.30003 5.21265 6.08217 5.06377 5.96169C4.91516 5.84149 4.6973 5.86427 4.57706 6.01291L0.692297 10.8118V1.12496L8.0538 6.64611C8.33052 6.8522 8.66718 6.9429 8.99993 6.94382C9.33223 6.94311 9.66916 6.85241 9.94605 6.64611L17.3076 1.12496V10.8117L13.4229 6.01291C13.3027 5.86431 13.0846 5.84146 12.9362 5.96169C12.7873 6.08189 12.7645 6.30003 12.8848 6.44864Z" fill="#FF6A00"/>
</svg>
