<svg width="30" height="30" viewBox="0 0 30 30" fill="none" xmlns="http://www.w3.org/2000/svg">
<path d="M30 15.0001C30 14.0576 29.9116 13.1143 29.7365 12.1985C29.6575 11.784 29.2945 11.4844 28.8731 11.4844H15.0586C14.5728 11.4844 14.1797 11.8775 14.1797 12.3633V17.6367C14.1797 18.1225 14.5728 18.5156 15.0586 18.5156H22.1465C21.7049 19.4096 21.0963 20.1854 20.3816 20.838L25.3492 25.8056C28.2074 23.0824 30 19.2504 30 15.0001Z" fill="#4285F4"/>
<path d="M15.0002 7.03125C16.7246 7.03125 18.3648 7.57887 19.7432 8.61568C20.0917 8.87748 20.5835 8.84572 20.8925 8.53412L24.6433 4.7833C24.8175 4.60904 24.9111 4.36957 24.8999 4.12324C24.8888 3.87691 24.7755 3.64687 24.5866 3.48809C21.9027 1.23855 18.4978 0 15.0002 0C9.85281 0 5.30541 2.61645 2.61719 6.58898L7.77625 11.748C9.00707 8.97563 11.7763 7.03125 15.0002 7.03125Z" fill="#EA4436"/>
<path d="M15.0002 30C18.3555 30 21.4451 28.875 23.9417 27.0008L18.8809 21.94C17.7242 22.5913 16.4021 22.9688 15.0002 22.9688C11.7763 22.9688 9.00707 21.0244 7.77625 18.252L2.61719 23.411C5.30541 27.3836 9.85281 30 15.0002 30Z" fill="#34A853"/>
<path d="M7.15922 16.2662C7.09189 15.8514 7.03125 15.4337 7.03125 15.0002C7.03125 14.5668 7.09189 14.1491 7.15922 13.7343L1.64414 8.21924C0.600703 10.2571 0 12.5578 0 15.0002C0 17.4427 0.600703 19.7433 1.6442 21.7812L7.15922 16.2662Z" fill="#FBBC05"/>
</svg>
