<svg width="32" height="30" viewBox="0 0 32 30" fill="none" xmlns="http://www.w3.org/2000/svg">
<path d="M29.2678 3.2663C25.6308 -0.370666 19.7129 -0.370666 16.0758 3.2663L15.9999 3.34219L15.924 3.2663C12.2871 -0.370666 6.36924 -0.370602 2.73215 3.26636C0.970274 5.02817 0 7.37065 0 9.86234C0 12.354 0.970274 14.6964 2.73215 16.4583L15.5528 29.2789C15.7968 29.5229 16.2032 29.5228 16.4472 29.2789L21.7249 24.0014C22.3018 23.4245 21.4074 22.5301 20.8304 23.1068L16 27.9372L3.62659 15.5638C0.482765 12.42 0.482765 7.30456 3.62659 4.16074C6.77048 1.01691 11.8858 1.01691 15.0296 4.16074L15.5527 4.68385C15.7965 4.92761 16.2033 4.92761 16.4472 4.68385L16.9703 4.16074C20.1142 1.01691 25.2296 1.01698 28.3734 4.1608C29.8963 5.68373 30.7351 7.70852 30.7351 9.86227C30.7351 12.016 29.8963 14.0408 28.3733 15.5637L24.5187 19.4183C23.9418 19.9953 24.8363 20.8898 25.4131 20.3128L29.2678 16.4583C31.0297 14.6964 32 12.3538 32 9.86221C32 7.37065 31.0297 5.02817 29.2678 3.2663Z" fill="#2A2C30"/>
<path d="M23.7946 21.4758C23.691 21.2271 23.4328 21.0671 23.1639 21.0871C22.9 21.1068 22.6721 21.2947 22.6013 21.5495C22.4497 22.0965 23.0728 22.5541 23.5497 22.2513C23.8063 22.0883 23.9096 21.7562 23.7946 21.4758Z" fill="#2A2C30"/>
</svg>
