<svg width="12" height="12" viewBox="0 0 12 12" fill="none" xmlns="http://www.w3.org/2000/svg">
<g opacity="0.7">
<path d="M8.75763 0H3.24237C1.45453 0 0 1.45453 0 3.24237V8.75763C0 10.5455 1.45453 12 3.24237 12H8.75763C10.5455 12 12 10.5455 12 8.75763V3.24237C12 1.45453 10.5455 0 8.75763 0ZM11.0305 8.75763C11.0305 10.0109 10.0109 11.0305 8.75763 11.0305H3.24237C1.98909 11.0305 0.969469 10.0109 0.969469 8.75763V3.24237C0.969469 1.98909 1.98907 0.969469 3.24237 0.969469H8.75763C10.0109 0.969469 11.0305 1.98907 11.0305 3.24237V8.75763Z" fill="white"/>
<path d="M8.68617 5.58132C8.60086 5.006 8.33838 4.48456 7.92712 4.07331C7.51586 3.66207 6.99443 3.39957 6.41913 3.31428C6.15719 3.27545 5.89162 3.27545 5.62971 3.31428C4.91871 3.41973 4.29135 3.79571 3.86317 4.373C3.43499 4.95029 3.25722 5.65979 3.36267 6.37074C3.46811 7.08172 3.8441 7.70907 4.42139 8.13727C4.89004 8.48487 5.44575 8.6674 6.01872 8.6674C6.15154 8.6674 6.28532 8.6576 6.41911 8.63775C7.13011 8.53231 7.75746 8.15632 8.18564 7.57904C8.61384 7.00177 8.79161 6.29229 8.68617 5.58132ZM6.27691 7.67876C5.8221 7.74631 5.36824 7.63252 4.99893 7.35861C4.62963 7.08469 4.38911 6.68335 4.32168 6.22855C4.25423 5.77374 4.36792 5.31987 4.64184 4.95057C4.91578 4.58127 5.3171 4.34075 5.77192 4.2733C5.85569 4.26088 5.94004 4.25466 6.02439 4.25466C6.10875 4.25466 6.19312 4.26088 6.27689 4.27332C7.0323 4.38533 7.61512 4.96812 7.72715 5.72356C7.86637 6.66242 7.21582 7.53954 6.27691 7.67876Z" fill="white"/>
<path d="M9.37636 2.62392C9.28608 2.53366 9.16113 2.48193 9.03358 2.48193C8.90604 2.48193 8.78109 2.53364 8.69081 2.62392C8.60055 2.7142 8.54883 2.83893 8.54883 2.96669C8.54883 3.09445 8.60055 3.21919 8.69081 3.30947C8.78109 3.39973 8.90604 3.45145 9.03358 3.45145C9.16113 3.45145 9.28608 3.39975 9.37636 3.30947C9.46662 3.21919 9.51834 3.09424 9.51834 2.96669C9.51834 2.83912 9.46662 2.71418 9.37636 2.62392Z" fill="white"/>
</g>
</svg>
