<svg width="13" height="22" viewBox="0 0 13 22" fill="none" xmlns="http://www.w3.org/2000/svg">
<path d="M11.7483 0.00457747L9.02507 0C5.96565 0 3.98852 2.12509 3.98852 5.41423V7.91055H1.25046C1.01386 7.91055 0.822266 8.1115 0.822266 8.35937V11.9763C0.822266 12.2241 1.01408 12.4249 1.25046 12.4249H3.98852V21.5514C3.98852 21.7993 4.18011 22 4.41672 22H7.9891C8.2257 22 8.4173 21.799 8.4173 21.5514V12.4249H11.6187C11.8553 12.4249 12.0469 12.2241 12.0469 11.9763L12.0482 8.35937C12.0482 8.24036 12.003 8.12638 11.9228 8.04215C11.8427 7.95793 11.7334 7.91055 11.6198 7.91055H8.4173V5.79439C8.4173 4.77727 8.64865 4.26094 9.91336 4.26094L11.7478 4.26025C11.9842 4.26025 12.1758 4.0593 12.1758 3.81166V0.453169C12.1758 0.205757 11.9844 0.00503522 11.7483 0.00457747Z" fill="#2A2C30"/>
</svg>
