<?xml version="1.0" encoding="utf-8"?>
<!-- Generator: Adobe Illustrator 24.0.1, SVG Export Plug-In . SVG Version: 6.00 Build 0)  -->
<svg version="1.1" id="Слой_1" xmlns="http://www.w3.org/2000/svg" xmlns:xlink="http://www.w3.org/1999/xlink" x="0px" y="0px"
	 viewBox="0 0 8 14" style="enable-background:new 0 0 8 14;" xml:space="preserve">
<style type="text/css">
	.st0{fill:#FF6A00;}
</style>
<path class="st0" d="M6.8,0L5.1,0C3.2,0,2,1.4,2,3.4V5H0.3C0.1,5,0,5.2,0,5.3v2.3c0,0.2,0.1,0.3,0.3,0.3H2v5.8C2,13.9,2.1,14,2.2,14
	h2.2c0.1,0,0.3-0.1,0.3-0.3V7.9h2c0.1,0,0.3-0.1,0.3-0.3l0-2.3c0-0.1,0-0.1-0.1-0.2C6.8,5.1,6.8,5,6.7,5h-2V3.7c0-0.6,0.1-1,0.9-1
	l1.1,0C6.9,2.7,7,2.6,7,2.4V0.3C7,0.1,6.9,0,6.8,0z"/>
</svg>
